<?xml version="1.0" encoding="UTF-8" standalone="no" ?>
<!DOCTYPE svg PUBLIC "-//W3C//DTD SVG 1.1//EN" "http://www.w3.org/Graphics/SVG/1.1/DTD/svg11.dtd">
<svg xmlns="http://www.w3.org/2000/svg" xmlns:xlink="http://www.w3.org/1999/xlink" version="1.1" width="392.234375" height="214.43560000000002" xml:space="preserve">
<desc>Created with Fabric.js 1.6.0-rc.1</desc>
<defs></defs>
<g style="stroke: none; stroke-width: 1; stroke-dasharray: none; stroke-linecap: butt; stroke-linejoin: miter; stroke-miterlimit: 10; fill: none; fill-rule: nonzero; opacity: 1;" transform="translate(35.00000000000001 10) scale(0.3 0.3)" >
  <path d="M 164.4 491.6 L 388 268 c 4.4 -4.4 6.8 -10.8 6.8 -16.8 s -2.4 -12 -6.8 -16.8 L 164.4 10.8 c -9.2 -9.2 -24 -9.2 -33.2 0 l -16.4 16.4 c -9.2 9.2 -9.2 24 0 33.2 l 190.4 190.4 L 114.4 441.6 c -9.2 9.2 -9.2 24 0 33.2 l 16.4 16.4 C 140 500.8 155.2 500.8 164.4 491.6 z" style="stroke: none; stroke-width: 1; stroke-dasharray: none; stroke-linecap: butt; stroke-linejoin: miter; stroke-miterlimit: 10; fill: #080808; fill-rule: nonzero; opacity: 1;" transform=" matrix(1 0 0 1 0 0) " stroke-linecap="round" />
  <path d="M 194.8 68.8 l 174.8 174.8 c 2 2 3.2 4.8 2.8 7.6 c 0 2.8 -0.8 5.2 -2.8 7.6 L 155.2 473.2 c -4 4 -10.4 4 -14.4 0 l -7.6 -7.6 c -4 -4 -4 -10.4 0 -14.4 L 316 268.4 l 16.8 -16.8 L 316 234.8 L 133.2 52 c -4 -4 -4 -10.4 0 -14.4 l 7.6 -7.6 c 4 -4 10.4 -4 14.4 0 L 194 68.8 L 194.8 68.8 z" style="stroke: none; stroke-width: 1; stroke-dasharray: none; stroke-linecap: butt; stroke-linejoin: miter; stroke-miterlimit: 10; fill: #45e0d8; fill-rule: nonzero; opacity: 1;" transform=" matrix(1 0 0 1 0 0) " stroke-linecap="round" />
  <path d="M 147.6 502.4 c -7.2 0 -14.4 -2.8 -19.6 -8 L 111.6 478 c -5.2 -5.2 -8 -12 -8 -19.6 c 0 -7.2 2.8 -14.4 8 -19.6 l 187.6 -187.6 L 111.6 63.6 c -5.2 -5.2 -8 -12 -8 -19.6 c 0 -7.2 2.8 -14.4 8 -19.6 L 128 8 c 5.2 -5.2 12 -8 19.6 -8 c 7.2 0 14.4 2.8 19.6 8 l 223.6 223.6 c 5.2 5.2 8 12 8 19.6 c 0 7.2 -2.8 14.4 -8 19.6 L 167.2 494.4 C 162 499.6 154.8 502.4 147.6 502.4 L 147.6 502.4 z M 148 8 c -5.2 0 -10 2 -14 5.6 L 117.6 30 c -3.6 3.6 -5.6 8.4 -5.6 14 c 0 5.2 2 10 5.6 14 L 308 248.4 c 1.6 1.6 1.6 4 0 5.6 L 117.2 444.8 c -3.6 3.6 -5.6 8.4 -5.6 14 c 0 5.2 2 10 5.6 14 l 16.4 16.4 c 3.6 3.6 8.4 5.6 14 5.6 c 5.2 0 10 -2 14 -5.6 l 223.6 -223.6 c 3.6 -3.6 5.6 -8.8 5.6 -14 s -2 -10.4 -5.6 -14 L 161.6 14 C 158 10 153.2 8 148 8 z" style="stroke: none; stroke-width: 1; stroke-dasharray: none; stroke-linecap: butt; stroke-linejoin: miter; stroke-miterlimit: 10; fill: rgb(0,0,0); fill-rule: nonzero; opacity: 1;" transform=" matrix(1 0 0 1 0 0) " stroke-linecap="round" />
  <path d="M 147.6 480 c -4 0 -7.2 -1.6 -10 -4 l -7.6 -7.6 c -2.8 -2.8 -4 -6.4 -4 -10 s 1.6 -7.2 4 -10 l 197.2 -197.2 L 130.4 54.4 c -2.8 -2.8 -4 -6.4 -4 -10 c 0 -4 1.6 -7.2 4 -10 l 7.6 -7.6 c 2.8 -2.8 6.4 -4 10 -4 l 0 0 c 4 0 7.2 1.6 10 4 L 173.2 42 c 1.6 1.6 1.6 4 0 5.6 s -4 1.6 -5.6 0 l -15.2 -15.2 c -1.2 -1.2 -2.8 -2 -4.4 -2 l 0 0 c -1.6 0 -3.2 0.8 -4.4 2 L 136 40 c -1.2 1.2 -2 2.8 -2 4.4 s 0.8 3.2 2 4.4 l 199.6 199.6 c 1.6 1.6 1.6 4 0 5.6 l -200 200 c -1.2 1.2 -2 2.8 -2 4.4 s 0.8 3.2 2 4.4 l 7.6 7.6 c 2.4 2.4 6.4 2.4 8.8 0 L 366.4 256 c 1.2 -1.2 2 -2.8 1.6 -4.4 c 0 -2 -0.8 -3.6 -1.6 -4.8 L 191.6 72 c -1.6 -1.6 -1.6 -4 0 -5.6 s 4 -1.6 5.6 0 L 372 241.2 c 2.8 2.8 4.4 6.4 4 10.4 c 0 3.6 -1.2 7.6 -4 10 L 157.6 476 C 155.2 478.4 151.6 480 147.6 480 z" style="stroke: none; stroke-width: 1; stroke-dasharray: none; stroke-linecap: butt; stroke-linejoin: miter; stroke-miterlimit: 10; fill: rgb(0,0,0); fill-rule: nonzero; opacity: 1;" transform=" matrix(1 0 0 1 0 0) " stroke-linecap="round" />
</g>
<g style="stroke: none; stroke-width: 1; stroke-dasharray: none; stroke-linecap: butt; stroke-linejoin: miter; stroke-miterlimit: 10; fill: none; fill-rule: nonzero; opacity: 1;" transform="translate(121.64999999999996 74.17000000000002) scale(0.3 0.3)" >
  <path d="M 500 241.6 c 0 -13.2 -10.8 -23.6 -23.6 -23.6 H 27.6 C 14.4 218 4 228.8 4 241.6 v 20.8 C 4 275.6 14.8 286 27.6 286 h 448.8 c 13.2 0 23.6 -10.8 23.6 -23.6 C 500 262.4 500 241.6 500 241.6 z" style="stroke: none; stroke-width: 1; stroke-dasharray: none; stroke-linecap: butt; stroke-linejoin: miter; stroke-miterlimit: 10; fill: #0a0909; fill-rule: nonzero; opacity: 1;" transform=" matrix(1 0 0 1 0 0) " stroke-linecap="round" />
  <path d="M 481.2 246 c 0 -5.6 2 -8 -3.6 -8 H 34.4 c -5.6 0 -10.4 2.8 -10.4 8.4 V 258 c 0 5.6 4.8 12.4 10.4 12.4 h 443.2 c 5.6 0 2.4 -6.4 2.4 -12.4 L 481.2 246 z" style="stroke: none; stroke-width: 1; stroke-dasharray: none; stroke-linecap: butt; stroke-linejoin: miter; stroke-miterlimit: 10; fill: #61e6d4; fill-rule: nonzero; opacity: 1;" transform=" matrix(1 0 0 1 0 0) " stroke-linecap="round" />
  <path d="M 476.4 290 H 27.6 C 12.4 290 0 277.6 0 262.4 v -22.8 C 0 224.8 11.6 214 27.6 214 h 448.8 c 15.2 0 27.6 12.4 27.6 27.6 v 20.8 C 504 277.6 491.6 290 476.4 290 z M 27.6 222 C 16 222 8 229.2 8 239.6 v 22.8 c 0 10.8 8.8 19.6 19.6 19.6 h 448.8 c 10.8 0 19.6 -8.8 19.6 -19.6 v -20.8 c 0 -10.8 -8.8 -19.6 -19.6 -19.6 H 27.6 z" style="stroke: none; stroke-width: 1; stroke-dasharray: none; stroke-linecap: butt; stroke-linejoin: miter; stroke-miterlimit: 10; fill: rgb(0,0,0); fill-rule: nonzero; opacity: 1;" transform=" matrix(1 0 0 1 0 0) " stroke-linecap="round" />
  <path d="M 35.6 274 c -3.6 0 -7.6 -1.2 -10.4 -3.6 c -3.2 -2.8 -5.2 -6.4 -5.2 -10 v -13.6 c 0 -7.2 6.4 -12.4 15.6 -12.4 H 424 c 2.4 0 4 1.6 4 4 s -1.6 4 -4 4 H 35.6 c -3.2 0 -7.6 1.2 -7.6 4.4 v 13.6 c 0 2 1.2 3.2 2 4 c 1.6 1.2 3.6 2 5.2 2 l 0 0 h 437.2 c 3.2 0 3.2 -8 3.2 -8.4 v -11.2 c 0 -4.8 -0.8 -4.8 -3.2 -4.8 h -12.8 c -2.4 0 -4 -1.6 -4 -4 s 1.6 -4 4 -4 h 12.8 c 7.6 0 11.2 4.4 11.2 12.8 V 258 c 0 10 -4.4 16.4 -11.2 16.4 H 35.6 C 35.6 274 35.6 274 35.6 274 z" style="stroke: none; stroke-width: 1; stroke-dasharray: none; stroke-linecap: butt; stroke-linejoin: miter; stroke-miterlimit: 10; fill: rgb(0,0,0); fill-rule: nonzero; opacity: 1;" transform=" matrix(1 0 0 1 0 0) " stroke-linecap="round" />
</g>
  <g transform="translate(196.52 183.86) scale(0.8 0.8)">
   <text font-family="Neuropol" font-size="40" font-style="italic" font-weight="bold" style="stroke: none; stroke-width: 1; stroke-dasharray: none; stroke-linecap: butt; stroke-linejoin: miter; stroke-miterlimit: 10; fill: #000000; fill-rule: nonzero; opacity: 1;" ><tspan x="-232.65" y="8.98" style="stroke: none; stroke-width: 0; stroke-dasharray: none; stroke-linecap: butt; stroke-linejoin: miter; stroke-miterlimit: 4; fill: #000000; fill-rule: ; opacity: 1;">L</tspan><tspan x="-203.45" y="8.98" style="stroke: none; stroke-width: 0; stroke-dasharray: none; stroke-linecap: butt; stroke-linejoin: miter; stroke-miterlimit: 4; fill: #000000; fill-rule: ; opacity: 1;">e</tspan><tspan x="-175.91" y="8.98" style="stroke: none; stroke-width: 0; stroke-dasharray: none; stroke-linecap: butt; stroke-linejoin: miter; stroke-miterlimit: 4; fill: #000000; fill-rule: ; opacity: 1;">e</tspan><tspan x="-148.37" y="8.98" style="stroke: none; stroke-width: 0; stroke-dasharray: none; stroke-linecap: butt; stroke-linejoin: miter; stroke-miterlimit: 4; fill: #000000; fill-rule: ; opacity: 1;">B</tspan><tspan x="-115.75" y="8.98" style="stroke: none; stroke-width: 0; stroke-dasharray: none; stroke-linecap: butt; stroke-linejoin: miter; stroke-miterlimit: 4; fill: #000000; fill-rule: ; opacity: 1;">o</tspan><tspan x="-87.51" y="8.98" style="stroke: none; stroke-width: 0; stroke-dasharray: none; stroke-linecap: butt; stroke-linejoin: miter; stroke-miterlimit: 4; fill: #000000; fill-rule: ; opacity: 1;">y</tspan><tspan x="-58.64" y="8.98" style="stroke: none; stroke-width: 0; stroke-dasharray: none; stroke-linecap: butt; stroke-linejoin: miter; stroke-miterlimit: 4; fill: #000000; fill-rule: ; opacity: 1;">z</tspan><tspan x="-31.01" y="8.98" style="stroke: none; stroke-width: 0; stroke-dasharray: none; stroke-linecap: butt; stroke-linejoin: miter; stroke-miterlimit: 4; fill: #000000; fill-rule: ; opacity: 1;"> </tspan><tspan x="-19.64" y="8.98" style="stroke: none; stroke-width: 0; stroke-dasharray: none; stroke-linecap: butt; stroke-linejoin: miter; stroke-miterlimit: 4; fill: #000000; fill-rule: ; opacity: 1;">D</tspan><tspan x="12.98" y="8.98" style="stroke: none; stroke-width: 0; stroke-dasharray: none; stroke-linecap: butt; stroke-linejoin: miter; stroke-miterlimit: 4; fill: #000000; fill-rule: ; opacity: 1;">e</tspan><tspan x="40.52" y="8.98" style="stroke: none; stroke-width: 0; stroke-dasharray: none; stroke-linecap: butt; stroke-linejoin: miter; stroke-miterlimit: 4; fill: #000000; fill-rule: ; opacity: 1;">v</tspan><tspan x="72.06" y="8.98" style="stroke: none; stroke-width: 0; stroke-dasharray: none; stroke-linecap: butt; stroke-linejoin: miter; stroke-miterlimit: 4; fill: #000000; fill-rule: ; opacity: 1;">e</tspan><tspan x="99.6" y="8.98" style="stroke: none; stroke-width: 0; stroke-dasharray: none; stroke-linecap: butt; stroke-linejoin: miter; stroke-miterlimit: 4; fill: #000000; fill-rule: ; opacity: 1;">l</tspan><tspan x="106.83" y="8.98" style="stroke: none; stroke-width: 0; stroke-dasharray: none; stroke-linecap: butt; stroke-linejoin: miter; stroke-miterlimit: 4; fill: #000000; fill-rule: ; opacity: 1;">o</tspan><tspan x="135.07" y="8.98" style="stroke: none; stroke-width: 0; stroke-dasharray: none; stroke-linecap: butt; stroke-linejoin: miter; stroke-miterlimit: 4; fill: #000000; fill-rule: ; opacity: 1;">p</tspan><tspan x="163.58" y="8.98" style="stroke: none; stroke-width: 0; stroke-dasharray: none; stroke-linecap: butt; stroke-linejoin: miter; stroke-miterlimit: 4; fill: #000000; fill-rule: ; opacity: 1;">e</tspan><tspan x="191.12" y="8.98" style="stroke: none; stroke-width: 0; stroke-dasharray: none; stroke-linecap: butt; stroke-linejoin: miter; stroke-miterlimit: 4; fill: #000000; fill-rule: ; opacity: 1;">r</tspan><tspan x="205.01" y="8.98" style="stroke: none; stroke-width: 0; stroke-dasharray: none; stroke-linecap: butt; stroke-linejoin: miter; stroke-miterlimit: 4; fill: #000000; fill-rule: ; opacity: 1;">z</tspan></text>
 </g>
</svg>